<?xml version="1.0" standalone="no"?>
<!DOCTYPE svg PUBLIC "-//W3C//DTD SVG 20010904//EN"
 "http://www.w3.org/TR/2001/REC-SVG-20010904/DTD/svg10.dtd">
<svg version="1.0" xmlns="http://www.w3.org/2000/svg"
 width="200.000000pt" height="200.000000pt" viewBox="0 0 200.000000 200.000000"
 preserveAspectRatio="xMidYMid meet">

<g transform="translate(0.000000,200.000000) scale(0.100000,-0.100000)"
fill="#000000" stroke="none">
<path d="M0 1897 l0 -104 38 -11 c163 -48 573 -154 595 -154 9 1 15 -3 12 -8
-3 -6 1 -7 9 -4 18 7 22 -11 6 -21 -6 -4 -16 -21 -24 -38 -7 -18 -23 -42 -35
-54 -12 -13 -19 -23 -15 -23 3 0 -1 -11 -9 -24 -9 -13 -13 -33 -10 -45 4 -17
0 -24 -15 -28 -11 -3 -23 -11 -26 -18 -3 -8 2 -11 13 -8 11 3 18 -1 18 -11 0
-11 -10 -16 -29 -16 -15 0 -28 -4 -28 -9 0 -15 18 -23 25 -11 13 22 25 -3 25
-54 0 -38 -5 -58 -17 -67 -12 -11 -17 -11 -20 -2 -7 20 -53 -33 -53 -60 0 -14
7 -27 15 -31 8 -3 15 -1 15 5 0 11 25 39 34 39 3 0 6 -7 6 -15 0 -8 4 -15 9
-15 17 0 18 -49 1 -65 -9 -8 -20 -12 -23 -8 -4 3 -7 -1 -7 -11 0 -9 4 -15 9
-12 15 10 43 -6 37 -20 -3 -8 -1 -14 4 -14 17 0 24 -51 9 -61 -8 -5 -16 -3
-20 3 -4 6 -7 -5 -6 -25 0 -21 5 -37 9 -37 4 0 8 -16 8 -35 0 -20 7 -52 15
-73 9 -20 16 -66 16 -104 0 -56 4 -70 20 -82 11 -7 24 -26 28 -42 6 -24 1 -37
-33 -81 -26 -34 -42 -48 -44 -38 -2 8 -8 15 -14 15 -6 0 -8 -9 -3 -22 8 -28 9
-39 7 -105 -2 -52 -2 -53 -57 -88 -31 -19 -59 -35 -64 -35 -5 0 -24 -20 -42
-45 -19 -24 -39 -45 -46 -45 -6 0 -15 -5 -19 -12 -5 -7 -3 -8 6 -3 12 7 10 -7
-7 -52 -3 -7 -2 -13 2 -13 8 0 54 47 51 52 0 2 10 -8 24 -23 l26 -27 201 -1
c182 -1 203 1 213 16 11 17 11 17 6 1 -5 -17 27 -18 574 -18 l580 0 0 60 c0
59 -1 61 -30 67 -31 6 -42 23 -15 23 23 0 7 28 -64 112 -36 43 -74 78 -83 78
-9 0 -20 5 -24 11 -4 8 -10 6 -17 -6 -6 -12 -6 -20 2 -25 9 -5 8 -10 -4 -20
-21 -17 -19 -23 10 -37 17 -8 27 -8 32 -1 4 7 1 8 -8 3 -12 -8 -12 -6 0 9 10
12 17 14 25 6 19 -20 -23 -42 -71 -37 -30 3 -40 1 -37 -8 8 -20 54 -40 88 -37
27 2 29 1 14 -11 -15 -12 -15 -14 2 -25 11 -6 27 -9 37 -6 13 4 14 3 5 -3 -10
-8 -10 -12 3 -23 8 -7 15 -18 15 -25 0 -17 -33 -30 -38 -15 -3 8 -8 7 -19 -1
-12 -10 -16 -10 -24 2 -7 11 -9 12 -9 0 0 -10 -10 -12 -40 -8 -27 3 -40 1 -40
-6 -1 -7 -5 -6 -13 3 -13 16 -67 25 -67 10 0 -5 -9 -7 -20 -5 -11 2 -20 0 -20
-4 0 -5 -8 -8 -17 -8 -90 0 -133 -4 -128 -13 3 -5 21 -10 38 -11 30 -1 30 -1
7 -8 -38 -11 -82 -1 -76 16 3 8 2 12 -3 9 -5 -3 -11 0 -14 8 -6 15 31 26 90
26 55 0 34 31 -31 45 -27 6 -27 7 -10 20 11 8 34 15 53 15 19 0 42 6 50 14 22
20 65 23 85 7 19 -16 21 -8 5 20 -8 17 -19 20 -57 18 -26 -2 -57 -9 -69 -17
-20 -12 -22 -12 -20 7 1 16 12 24 39 32 23 6 36 14 32 20 -3 6 -16 8 -28 5
-20 -5 -20 -4 -2 9 16 12 21 12 33 -1 12 -11 18 -12 29 -3 16 13 19 23 4 14
-5 -3 -10 0 -10 7 0 9 -3 9 -10 -2 -5 -8 -10 -10 -10 -5 0 15 29 37 78 59 23
11 48 26 54 34 8 9 -3 7 -32 -8 -29 -15 -45 -19 -48 -11 -3 8 -9 8 -25 0 -21
-11 -21 -10 2 15 14 14 20 26 15 26 -5 1 5 12 21 25 17 14 24 25 16 25 -11 0
-11 3 -1 15 19 22 5 30 -50 27 -28 -1 -50 1 -50 5 1 30 50 53 113 53 40 0 40
0 21 -18 -11 -11 -26 -21 -34 -24 -10 -3 -8 -6 7 -10 18 -5 27 1 43 28 20 36
73 66 97 57 8 -3 11 -8 8 -12 -4 -3 12 -10 35 -16 l42 -10 -46 -17 c-37 -14
-44 -14 -39 -2 3 8 -17 0 -44 -18 -74 -49 -89 -59 -75 -53 26 13 10 -4 -24
-25 -19 -12 -33 -25 -30 -27 3 -3 33 11 67 31 34 20 75 38 90 39 15 1 25 5 23
9 -8 13 35 19 55 8 12 -6 48 -13 81 -16 l60 -5 0 227 0 227 -92 -7 c-51 -4
-125 -12 -165 -19 -67 -12 -72 -12 -77 6 -4 17 -6 18 -30 2 -14 -9 -41 -37
-62 -62 -36 -44 -36 -45 -24 -84 7 -21 17 -39 21 -39 4 0 13 16 19 35 11 33
40 49 40 23 0 -13 20 26 35 67 5 13 9 16 12 7 3 -7 -9 -55 -26 -107 -34 -105
-36 -115 -20 -115 6 0 8 7 5 16 -7 19 12 16 79 -10 l40 -16 -42 4 c-23 1 -40
-1 -38 -5 6 -9 -77 -37 -143 -48 -48 -7 -50 -7 -41 11 5 10 6 18 1 18 -4 0
-16 -20 -26 -45 -11 -25 -22 -45 -26 -45 -4 0 -12 -12 -18 -26 -9 -18 -17 -24
-31 -19 -10 3 -24 -1 -31 -10 -9 -11 -16 -12 -25 -5 -9 8 -17 6 -29 -5 -9 -9
-16 -20 -16 -25 0 -10 -38 -20 -43 -11 -2 3 -3 1 -1 -6 1 -6 -13 -29 -32 -51
-30 -35 -47 -66 -54 -97 -1 -5 -6 -18 -12 -29 -7 -13 -7 -16 1 -12 6 4 11 2
11 -3 0 -6 -7 -11 -15 -11 -8 0 -15 -5 -15 -11 0 -5 -4 -8 -9 -4 -5 3 -13 1
-16 -5 -5 -9 -113 -8 -182 2 -39 5 9 38 55 38 17 0 44 12 67 30 41 33 51 36
57 18 3 -7 7 -5 11 6 4 10 3 15 -3 11 -15 -10 -12 5 5 22 20 20 14 38 -13 37
-17 0 -19 2 -11 13 15 18 -3 17 -39 -1 -70 -35 -148 -26 -198 22 -18 17 -25
18 -37 9 -8 -7 -17 -19 -19 -27 -3 -10 -15 -1 -36 29 -18 24 -32 49 -32 55 0
6 5 3 11 -7 6 -9 14 -15 20 -12 5 4 15 3 22 -2 12 -7 70 -13 157 -14 25 -1 97
4 160 9 63 6 118 11 123 11 4 1 7 7 7 15 0 17 -75 32 -93 18 -21 -17 -177 -35
-177 -21 0 5 4 9 10 9 5 0 27 15 47 34 21 18 48 36 60 40 29 9 39 24 46 69 6
36 5 37 -25 37 -17 0 -60 -5 -95 -11 -46 -8 -67 -8 -77 0 -7 6 -31 13 -53 16
l-40 5 -8 -43 c-4 -23 -8 -59 -8 -79 -1 -32 -4 -38 -23 -38 -13 0 -26 5 -29
10 -4 7 -12 7 -25 0 -22 -12 -34 1 -25 29 7 22 -4 53 -16 45 -5 -3 -9 6 -9 20
0 14 -4 26 -10 26 -10 0 -36 54 -46 96 -8 31 28 51 50 28 9 -8 16 -11 16 -6 0
5 15 13 34 16 22 4 55 26 93 61 32 30 62 55 66 55 5 0 5 4 2 10 -4 6 -16 5
-34 -5 -22 -11 -31 -11 -41 -2 -7 7 -10 7 -7 1 4 -7 -7 -11 -29 -12 -24 -1
-34 3 -31 11 4 12 38 21 120 32 36 5 47 10 47 24 0 10 7 24 15 31 15 12 16 35
2 56 -13 22 -104 63 -114 53 -13 -13 -85 -19 -98 -9 -16 13 -27 13 -36 -2 -7
-10 -9 -9 -9 5 0 31 -33 16 -49 -23 -7 -20 -9 -13 -6 33 2 33 -1 57 -7 57 -6
0 -4 8 3 17 10 11 10 14 1 9 -8 -5 -12 0 -13 16 -2 37 2 62 11 72 5 5 6 14 3
22 -7 18 41 95 92 150 24 25 45 45 47 44 2 -1 24 8 49 19 25 11 64 23 86 25
22 3 52 10 67 16 18 6 42 6 77 -1 28 -6 56 -12 62 -13 7 -1 18 -5 25 -10 7 -4
16 -6 19 -3 2 3 26 -1 51 -9 26 -8 58 -17 72 -20 47 -9 56 -14 41 -23 -16 -10
-6 -31 15 -31 8 0 14 8 15 18 0 14 2 14 9 -3 5 -11 9 -16 9 -12 1 4 7 2 15 -5
8 -7 11 -17 8 -22 -3 -5 0 -6 5 -3 14 9 65 -32 57 -44 -6 -11 26 -40 37 -33 4
2 12 -3 19 -11 9 -10 9 -15 1 -15 -6 0 -11 -8 -11 -18 0 -10 -12 -22 -30 -29
-26 -10 -29 -15 -27 -52 1 -23 5 -41 10 -41 4 0 6 -4 3 -8 -3 -5 -1 -24 4 -43
5 -19 15 -56 22 -83 7 -27 19 -51 26 -54 11 -4 11 -7 2 -12 -7 -4 -9 -13 -5
-20 6 -9 10 -9 16 1 6 9 7 -12 5 -53 -2 -37 -8 -73 -13 -80 -11 -17 -20 -168
-10 -168 4 0 7 6 7 13 2 63 25 170 47 216 14 31 29 69 33 86 3 19 13 31 25 33
11 2 25 9 30 14 7 7 3 9 -12 5 -24 -5 -32 8 -10 16 8 4 8 6 1 6 -18 1 0 65 25
90 23 23 27 41 10 41 -5 0 -7 5 -4 10 4 6 9 8 13 6 12 -7 10 119 -2 126 -8 6
-7 8 2 8 6 0 12 9 12 21 0 13 4 18 12 13 8 -5 9 0 5 15 -4 18 -2 21 15 15 15
-4 18 -3 13 7 -6 9 -2 11 16 6 13 -4 27 -7 32 -7 4 0 7 -12 7 -26 0 -16 5 -24
13 -21 6 2 11 12 11 21 -1 9 4 16 12 16 8 0 14 -4 14 -10 0 -5 13 -7 31 -3 17
3 34 1 38 -4 3 -6 30 -13 59 -17 l52 -7 0 341 0 340 -1000 0 -1000 0 0 -103z
m1520 -892 c0 -8 -4 -17 -10 -20 -6 -4 -10 5 -10 20 0 15 4 24 10 20 6 -3 10
-12 10 -20z m-700 -21 l24 -24 -49 6 c-31 4 -72 0 -107 -9 -55 -14 -58 -14
-58 4 0 10 9 27 21 38 30 28 134 19 169 -15z m-12 -33 c8 -5 -4 -8 -32 -9 -25
-1 -57 -7 -71 -12 -18 -7 -24 -7 -20 1 16 24 95 38 123 20z m889 -337 c-3 -3
-12 -4 -19 -1 -8 3 -5 6 6 6 11 1 17 -2 13 -5z m-10 -14 c41 0 23 -7 -37 -14
-51 -6 -53 -5 -35 9 11 9 26 13 33 10 8 -3 25 -5 39 -5z m-147 -33 c0 -2 -12
-14 -26 -28 l-27 -24 18 28 c14 22 35 36 35 24z m390 -61 c0 -12 -5 -7 -19 24
-11 24 -11 24 3 6 9 -11 16 -24 16 -30z m-443 -38 c-3 -8 -6 -5 -6 6 -1 11 2
17 5 13 3 -3 4 -12 1 -19z m0 -173 c4 -4 3 -5 -4 -1 -10 6 -26 -22 -28 -49 0
-5 -6 -10 -13 -10 -7 0 -17 -7 -22 -15 -18 -29 -10 0 13 44 21 41 37 50 54 31z
m-934 -132 c9 -27 17 -67 17 -89 0 -35 -4 -42 -22 -47 -13 -2 -31 -8 -41 -12
-12 -5 -17 -3 -15 6 2 8 -4 13 -14 13 -10 -1 -16 3 -15 9 1 6 -7 13 -18 15
-11 2 -23 9 -27 16 -5 7 -8 6 -8 -4 0 -13 -2 -13 -9 -1 -16 25 19 79 66 102
23 11 45 25 49 30 11 18 20 8 37 -38z"/>
<path d="M496 1624 c-5 -12 -2 -15 10 -10 8 3 23 6 32 6 15 0 15 2 2 10 -22
14 -37 12 -44 -6z"/>
<path d="M587 1570 c7 -28 22 -35 30 -15 3 10 0 21 -8 26 -22 14 -28 11 -22
-11z"/>
<path d="M260 1539 c0 -5 5 -7 10 -4 6 3 10 8 10 11 0 2 -4 4 -10 4 -5 0 -10
-5 -10 -11z"/>
<path d="M232 1493 c-12 -15 -22 -33 -22 -41 0 -22 -24 -8 -31 19 -6 23 -7 22
-16 -11 -8 -29 -7 -38 7 -52 11 -10 18 -33 18 -59 1 -23 6 -47 11 -52 6 -6 11
-7 11 -3 0 5 7 3 15 -4 12 -10 15 -10 15 3 0 9 -4 18 -9 21 -9 6 -25 64 -22
80 1 4 -4 14 -10 22 -8 9 -8 14 -1 14 6 0 14 -4 17 -10 12 -20 27 -10 23 15
-3 15 -1 22 5 18 7 -4 8 1 3 12 -4 11 0 25 10 36 10 11 13 19 7 19 -5 0 -19
-12 -31 -27z"/>
<path d="M405 1500 c-3 -5 1 -10 9 -10 9 0 16 5 16 10 0 6 -4 10 -9 10 -6 0
-13 -4 -16 -10z"/>
<path d="M266 1468 c-8 -18 -12 -38 -9 -45 3 -7 0 -13 -6 -13 -13 0 -15 -36
-2 -44 5 -3 7 -16 3 -28 -4 -17 -2 -20 12 -15 10 4 20 7 22 7 2 0 4 9 4 19 0
11 5 23 10 26 6 3 10 -4 10 -15 0 -31 32 -81 48 -75 7 2 11 1 7 -4 -3 -5 1
-12 7 -14 10 -4 10 -6 1 -6 -18 -1 -16 -21 1 -21 13 0 31 27 28 42 -1 3 14 6
33 5 24 -1 35 -6 35 -16 0 -24 11 -5 14 25 2 18 -4 34 -16 44 -10 8 -20 28
-22 44 -2 16 -12 33 -22 39 -29 15 -30 17 -14 28 11 8 9 8 -10 3 -13 -4 -30
-13 -38 -20 -13 -14 -50 -13 -73 1 -6 4 -9 20 -7 36 6 38 0 37 -16 -3z m11
-80 c-3 -8 -6 -5 -6 6 -1 11 2 17 5 13 3 -3 4 -12 1 -19z"/>
<path d="M330 1455 c-8 -9 -8 -15 -2 -15 12 0 26 19 19 26 -2 2 -10 -2 -17
-11z"/>
<path d="M488 1442 c-23 -25 -27 -54 -5 -57 9 -2 18 0 18 3 3 12 7 72 6 71 -1
0 -9 -8 -19 -17z"/>
<path d="M25 1340 c3 -5 8 -10 11 -10 2 0 4 5 4 10 0 6 -5 10 -11 10 -5 0 -7
-4 -4 -10z"/>
<path d="M280 1300 c0 -14 6 -20 18 -18 11 2 16 -3 14 -14 -3 -18 13 -25 21
-10 5 7 -37 62 -48 62 -3 0 -5 -9 -5 -20z"/>
<path d="M501 1264 c0 -11 3 -14 6 -6 3 7 2 16 -1 19 -3 4 -6 -2 -5 -13z"/>
<path d="M170 1250 c0 -5 5 -10 10 -10 6 0 10 5 10 10 0 6 -4 10 -10 10 -5 0
-10 -4 -10 -10z"/>
<path d="M1976 1143 c5 -5 12 -12 16 -18 4 -6 8 -2 8 8 0 9 -7 17 -17 17 -9 0
-12 -3 -7 -7z"/>
<path d="M1187 1094 c-2 -3 -21 -5 -41 -6 -20 -1 -36 -5 -36 -9 0 -5 -7 -6
-15 -3 -15 6 -88 -33 -82 -44 2 -4 13 -28 25 -54 13 -27 29 -48 38 -48 9 0 12
-5 8 -11 -5 -9 1 -10 21 -5 29 7 120 -2 110 -12 -3 -3 -35 -4 -71 -3 -74 3
-73 3 -9 -61 56 -57 107 -60 182 -10 29 19 39 32 34 41 -5 8 -13 11 -19 7 -5
-3 -15 0 -21 7 -9 11 -3 13 32 10 23 -2 48 1 56 6 19 12 6 41 -18 41 -11 0
-24 6 -28 14 -10 17 -47 36 -70 36 -12 0 -8 -6 16 -21 36 -22 37 -38 1 -19
-11 6 -50 12 -85 13 -72 2 -72 14 1 27 l49 9 -50 -4 c-27 -2 -59 -6 -70 -10
-48 -15 47 50 101 69 33 12 58 25 56 30 -2 9 -107 18 -115 10z"/>
<path d="M350 1080 c0 -5 -6 -10 -14 -10 -20 0 -36 -24 -27 -39 6 -9 14 -6 30
15 20 25 27 44 16 44 -3 0 -5 -4 -5 -10z"/>
<path d="M408 1043 c7 -3 16 -2 19 1 4 3 -2 6 -13 5 -11 0 -14 -3 -6 -6z"/>
<path d="M1676 1001 c-3 -4 6 -6 19 -3 14 2 25 6 25 8 0 8 -39 4 -44 -5z"/>
<path d="M478 964 c-5 -4 -8 -16 -8 -28 0 -14 3 -17 11 -9 6 6 9 19 7 28 -1 9
-6 13 -10 9z"/>
<path d="M370 911 c0 -22 -3 -46 -6 -55 -3 -9 -1 -16 4 -16 10 0 23 27 27 55
1 6 3 15 4 20 1 6 6 3 12 -5 9 -12 10 -12 5 3 -3 10 -6 23 -6 28 0 5 -9 9 -20
9 -17 0 -20 -7 -20 -39z"/>
<path d="M420 940 c0 -5 7 -7 15 -4 8 4 15 8 15 10 0 2 -7 4 -15 4 -8 0 -15
-4 -15 -10z"/>
<path d="M220 901 c0 -5 5 -13 10 -16 6 -3 10 -2 10 4 0 5 -4 13 -10 16 -5 3
-10 2 -10 -4z"/>
<path d="M320 850 c0 -5 5 -10 10 -10 6 0 10 5 10 10 0 6 -4 10 -10 10 -5 0
-10 -4 -10 -10z"/>
<path d="M366 805 c4 -15 2 -25 -4 -25 -7 0 -4 -13 6 -29 9 -16 19 -27 22 -25
8 9 5 39 -5 46 -6 5 -5 12 2 19 9 9 10 16 2 26 -18 21 -30 15 -23 -12z"/>
<path d="M405 790 c-3 -5 -1 -10 4 -10 6 0 11 5 11 10 0 6 -2 10 -4 10 -3 0
-8 -4 -11 -10z"/>
<path d="M280 731 c0 -16 -7 -36 -15 -45 -8 -8 -15 -19 -15 -25 0 -6 -10 -16
-22 -22 l-21 -11 24 -14 c13 -7 39 -13 57 -14 26 0 34 5 43 28 6 15 16 36 21
46 9 16 6 23 -13 38 -13 11 -32 26 -41 33 -16 14 -18 12 -18 -14z"/>
<path d="M540 711 c-7 -13 -7 -22 0 -26 5 -3 10 -5 11 -3 11 48 7 61 -11 29z"/>
<path d="M500 661 c0 -5 9 -11 20 -14 24 -6 27 8 4 17 -21 8 -24 8 -24 -3z"/>
<path d="M1226 612 c-3 -5 6 -20 19 -32 30 -28 33 -18 6 16 -11 14 -22 21 -25
16z"/>
<path d="M330 590 c0 -5 5 -10 11 -10 5 0 7 5 4 10 -3 6 -8 10 -11 10 -2 0 -4
-4 -4 -10z"/>
<path d="M0 432 l0 -109 133 -60 c115 -53 132 -64 132 -85 0 -45 -35 -38 -203
38 -29 13 -55 24 -57 24 -3 0 -5 -24 -5 -54 l0 -53 48 -17 c26 -9 77 -30 114
-46 l67 -28 33 45 c18 24 50 66 71 93 30 40 37 58 37 95 0 30 4 44 12 43 17
-4 23 105 7 133 l-11 21 -12 -23 c-10 -20 -19 -24 -56 -23 -44 1 -182 51 -262
94 -20 11 -39 20 -42 20 -4 0 -6 -49 -6 -108z"/>
<path d="M1595 530 c3 -5 8 -10 11 -10 2 0 4 5 4 10 0 6 -5 10 -11 10 -5 0 -7
-4 -4 -10z"/>
<path d="M601 504 c0 -11 3 -14 6 -6 3 7 2 16 -1 19 -3 4 -6 -2 -5 -13z"/>
<path d="M420 502 c0 -5 11 -15 25 -22 13 -7 29 -25 34 -39 7 -19 10 -21 10
-7 1 12 6 16 16 12 9 -3 15 0 15 9 0 8 -12 17 -27 21 -16 4 -38 13 -50 20 -13
8 -23 11 -23 6z"/>
<path d="M420 431 c0 -11 5 -23 10 -26 6 -3 10 -19 10 -35 0 -27 15 -48 26
-37 8 7 -29 117 -38 117 -5 0 -8 -9 -8 -19z"/>
<path d="M1811 420 c-12 -7 -8 -10 15 -15 16 -4 40 -10 54 -15 19 -5 32 -3 49
11 13 11 19 20 15 20 -48 7 -122 7 -133 -1z"/>
<path d="M1914 379 c-3 -5 5 -20 18 -32 12 -12 30 -33 40 -47 14 -21 16 -22
13 -5 -2 11 -4 21 -5 23 -2 1 -4 7 -5 12 -1 6 -4 13 -5 18 -1 4 -2 10 -2 13 2
12 -47 29 -54 18z"/>
<path d="M1657 285 c-81 -17 -102 -40 -27 -30 30 4 67 8 83 8 29 0 35 9 15 24
-9 6 -34 5 -71 -2z"/>
<path d="M430 220 c0 -5 5 -10 11 -10 5 0 7 5 4 10 -3 6 -8 10 -11 10 -2 0 -4
-4 -4 -10z"/>
<path d="M0 58 c0 -58 13 -77 24 -35 9 35 7 52 -9 73 -13 17 -14 14 -15 -38z"/>
<path d="M363 18 c0 -7 11 -14 24 -14 22 -2 23 -1 6 12 -23 17 -30 17 -30 2z"/>
</g>
</svg>
